<svg class="brxe-svg" id="brxe-bonjft" xmlns="http://www.w3.org/2000/svg" width="123" height="27" viewBox="0 0 123 27" fill="none"><path fill-rule="evenodd" clip-rule="evenodd" d="M32.7408 0L24.8652 20.6226H26.8529L29.2211 14.3183H38.557L40.8924 20.6226H42.8801L35.0139 0H32.7408ZM33.859 2.00575L37.8949 12.6242H29.8542L33.859 2.00575Z" fill="black"></path><path fill-rule="evenodd" clip-rule="evenodd" d="M50.5335 12.5753C47.4162 11.834 45.6636 11.6319 45.6636 9.45039C45.6636 7.95967 46.8987 6.89948 49.0002 6.89948C51.365 6.89948 52.7789 8.10403 52.8983 10.1123H54.6821C54.4833 7.1589 52.4039 5.37988 49.0348 5.37988C45.9451 5.37988 43.8666 7.1589 43.8666 9.68476C43.8666 12.265 45.69 13.0933 49.2579 13.9574C51.9167 14.5845 53.3011 14.9017 53.3011 16.7388C53.3011 18.3718 51.8603 19.5207 49.2891 19.5207C46.9823 19.5207 45.3679 18.0576 45.3453 15.9958H43.5518C43.6418 19.066 45.8893 21.0412 49.3782 21.0412C52.8983 21.0412 55.0831 19.232 55.0831 16.7673C55.0831 14.3599 53.6987 13.3506 50.5335 12.5753Z" fill="black"></path><path fill-rule="evenodd" clip-rule="evenodd" d="M63.6992 12.5753C60.5904 11.834 58.8301 11.6319 58.8301 9.45039C58.8301 7.95967 60.0707 6.89948 62.1749 6.89948C64.5397 6.89948 65.9484 8.10403 66.0687 10.1123H67.8507C67.6506 7.1589 65.573 5.37988 62.2051 5.37988C59.1193 5.37988 57.0408 7.1589 57.0408 9.68476C57.0408 12.265 58.8565 13.0933 62.4317 13.9574C65.0883 14.5845 66.4659 14.9017 66.4659 16.7388C66.4659 18.3718 65.0281 19.5207 62.462 19.5207C60.159 19.5207 58.5408 18.0576 58.5127 15.9958H56.7285C56.8121 19.066 59.063 21.0412 62.5465 21.0412C66.0687 21.0412 68.2564 19.232 68.2564 16.7673C68.2564 14.3599 66.8716 13.3506 63.6992 12.5753Z" fill="black"></path><path fill-rule="evenodd" clip-rule="evenodd" d="M71.5383 12.1181C71.7073 8.853 73.6121 6.89948 76.2918 6.89948C78.9757 6.89948 80.7488 8.82413 80.8956 12.1181H71.5383ZM76.3212 5.37988C72.2576 5.37988 69.749 8.24754 69.749 13.2657C69.749 18.2049 72.2248 21.0416 76.2615 21.0416C79.6925 21.0416 82.1225 19.066 82.495 16.0497H80.7488C80.4075 18.2325 78.7155 19.5207 76.3746 19.5207C73.4957 19.5207 71.5383 17.3409 71.5383 13.6101V13.5264H82.6972V12.9528C82.6972 8.10403 80.2936 5.37988 76.3212 5.37988Z" fill="black"></path><path fill-rule="evenodd" clip-rule="evenodd" d="M91.2824 19.5212C88.1992 19.5212 86.1902 17.228 86.1902 13.2139C86.1902 9.10902 88.0819 6.89863 91.2824 6.89863C94.4587 6.89863 96.3662 9.1362 96.3662 13.2139C96.3662 17.2844 94.4254 19.5212 91.2824 19.5212ZM96.2241 8.33543C95.0641 6.35643 93.3379 5.37988 91.0282 5.37988C87.0439 5.37988 84.3945 8.30613 84.3945 13.2139C84.3945 18.1485 86.9914 21.0416 91.0282 21.0416C93.3115 21.0416 95.0321 20.0646 96.2241 18.0873V19.9228C96.2241 23.4252 94.4254 25.2301 90.8225 25.2301C88.2956 25.2301 86.8169 24.1695 86.6446 22.3905H84.8625C85.0729 25.0319 87.3046 26.7489 90.8503 26.7489C95.5321 26.7489 97.9438 24.4281 97.9438 19.868V5.75267H96.2241V8.33543Z" fill="black"></path><path fill-rule="evenodd" clip-rule="evenodd" d="M111.034 14.5557C111.034 17.6264 109.256 19.5204 106.401 19.5204C103.655 19.5204 102.74 18.2042 102.74 15.3595V5.75195H101.001V15.7611C101.001 19.2619 102.682 21.0409 106.085 21.0409C108.32 21.0409 109.945 20.1467 111.089 18.2607V20.6354H112.771V5.75195H111.034V14.5557Z" fill="black"></path><path fill-rule="evenodd" clip-rule="evenodd" d="M122.083 5.37988C119.925 5.37988 118.358 6.29699 117.464 8.3626V5.75352H115.802V20.637H117.519V12.3775C117.519 8.93791 119.086 7.1589 122.054 7.1589H122.287V5.37988H122.083Z" fill="black"></path><path fill-rule="evenodd" clip-rule="evenodd" d="M20.7201 1.96768C20.6842 0.872674 19.7934 0.0141602 18.6927 0.0141602H14.0386C13.9934 0.0141602 13.9516 0.037937 13.9294 0.0761497C13.9055 0.114787 13.9047 0.162341 13.9247 0.201403C13.9742 0.29651 14.0147 0.406053 14.0433 0.525787C14.3424 1.85432 12.7797 3.57219 10.5608 4.35853C9.84573 4.61073 9.11791 4.74405 8.45535 4.74405C7.14347 4.74405 6.21001 4.22606 6.0193 3.39132C5.79618 2.41604 6.61573 1.15375 8.05347 0.249806C8.10296 0.218811 8.12429 0.160218 8.1085 0.106295C8.09229 0.0515237 8.04152 0.0141602 7.98478 0.0141602H2.03289C0.911279 0.0141602 0 0.921076 0 2.03689V6.24709C0 6.29294 0.0251711 6.33582 0.0652742 6.35875C1.73936 7.29666 3.48385 7.84098 7.44595 7.84098C10.3376 7.84098 13.9917 6.05475 17.2153 4.47826C18.4278 3.88639 19.572 3.32593 20.642 2.87078C20.6889 2.85082 20.7201 2.80412 20.7201 2.75317V1.96768Z" fill="#147BA7"></path><path fill-rule="evenodd" clip-rule="evenodd" d="M0.179734 9.30054C0.140484 9.28229 0.0944082 9.28568 0.0585714 9.31158C0.0218814 9.33451 0.000976562 9.37442 0.000976562 9.41731V18.6194C0.000976562 19.7284 0.903723 20.6361 2.01594 20.6417H3.38798C3.41742 20.6417 3.44558 20.6323 3.46776 20.6149C3.46776 20.6149 6.95033 17.3545 10.8356 13.8814C9.62871 13.0721 7.93286 12.231 5.65253 11.3908C0.597403 9.52812 0.179734 9.30054 0.179734 9.30054Z" fill="#DD2818"></path><path fill-rule="evenodd" clip-rule="evenodd" d="M10.8755 13.8506C10.861 13.8631 10.8485 13.8732 10.8359 13.8856C10.8485 13.8943 10.861 13.9024 10.8755 13.9116C10.8736 13.9063 10.8692 13.901 10.8692 13.8952C10.8663 13.8784 10.8712 13.865 10.8755 13.8506Z" fill="black"></path><path fill-rule="evenodd" clip-rule="evenodd" d="M11.4037 20.5624C11.4221 20.6108 11.4707 20.6439 11.5232 20.6439H18.6927C19.8151 20.6439 20.729 19.7353 20.729 18.619V6.02752C20.729 5.98294 20.7059 5.94175 20.6667 5.91797C20.6292 5.89547 20.5805 5.89547 20.54 5.91628C18.8945 6.82786 14.7797 10.3596 11.0036 13.7321C10.9579 13.7711 10.9135 13.8106 10.8713 13.8497C10.8679 13.8628 10.8632 13.8756 10.8662 13.8892C10.8662 13.8947 10.8696 13.8993 10.8713 13.904C12.5646 15.0491 13.2813 16.1276 13.2813 17.0455C13.365 18.104 12.7455 19.2398 11.4379 20.4227C11.3973 20.4575 11.3845 20.514 11.4037 20.5624Z" fill="#F7A90B"></path></svg>